<?xml version="1.0" encoding="UTF-8" standalone="no"?>
<!-- Generator: Adobe Illustrator 26.3.1, SVG Export Plug-In . SVG Version: 6.00 Build 0)  -->

<svg
   version="1.1"
   id="Camada_2"
   x="0px"
   y="0px"
   viewBox="0 0 320 320"
   style="enable-background:new 0 0 320 320;"
   xml:space="preserve"
   sodipodi:docname="facebook_logo.svg"
   inkscape:version="1.4 (86a8ad7, 2024-10-11)"
   xmlns:inkscape="http://www.inkscape.org/namespaces/inkscape"
   xmlns:sodipodi="http://sodipodi.sourceforge.net/DTD/sodipodi-0.dtd"
   xmlns="http://www.w3.org/2000/svg"
   xmlns:svg="http://www.w3.org/2000/svg"><defs
   id="defs10" /><sodipodi:namedview
   id="namedview10"
   pagecolor="#ffffff"
   bordercolor="#000000"
   borderopacity="0.25"
   inkscape:showpageshadow="2"
   inkscape:pageopacity="0.0"
   inkscape:pagecheckerboard="0"
   inkscape:deskcolor="#d1d1d1"
   inkscape:zoom="3.6018252"
   inkscape:cx="153.11682"
   inkscape:cy="248.90159"
   inkscape:window-width="1920"
   inkscape:window-height="1017"
   inkscape:window-x="-8"
   inkscape:window-y="-8"
   inkscape:window-maximized="1"
   inkscape:current-layer="Camada_2" />
<style
   type="text/css"
   id="style1">
	.st0{fill:none;stroke:#1D1D1B;stroke-miterlimit:10;}
</style>
<rect
   style="enable-background:new 0 0 320 320;fill:#ffffff;fill-opacity:1;stroke-width:6.99642;stroke-dasharray:20.9893, 20.9893"
   id="rect10"
   width="54.139217"
   height="271.80664"
   x="133.26576"
   y="45.81012" /><rect
   style="enable-background:new 0 0 320 320;fill:#ffffff;fill-opacity:1;stroke-width:9.43913;stroke-dasharray:28.3174, 28.3174"
   id="rect10-0"
   width="165.19403"
   height="162.14001"
   x="78.086945"
   y="56.880127" /><path
   class="st0"
   d="M231.29,65.43"
   id="path1" />
<g
   id="g10"
   sodipodi:insensitive="true">
	<path
   d="m 144.28,319.23 c -0.71,-0.07 -1.43,-0.15 -2.14,-0.23 0.71,0.08 1.42,0.16 2.14,0.23 z"
   id="path2" />
	<path
   d="m 140.79,318.85 c -0.82,-0.1 -1.63,-0.2 -2.45,-0.31 0.81,0.11 1.63,0.21 2.45,0.31 z"
   id="path3" />
	<path
   d="m 181.39,318.57 c -0.72,0.1 -1.44,0.19 -2.16,0.27 0.73,-0.08 1.45,-0.17 2.16,-0.27 z"
   id="path4" />
	<path
   d="m 147.92,319.55 c -0.57,-0.04 -1.13,-0.1 -1.7,-0.15 0.56,0.05 1.13,0.11 1.7,0.15 z"
   id="path5" />
	<path
   d="m 137.48,318.41 c -0.92,-0.13 -1.84,-0.26 -2.76,-0.41 0.91,0.15 1.83,0.28 2.76,0.41 z"
   id="path6" />
	<path
   d="m 173.64,319.42 c -0.52,0.04 -1.04,0.09 -1.56,0.13 0.52,-0.04 1.04,-0.09 1.56,-0.13 z"
   id="path7" />
	<path
   d="m 147.92,319.55 c 3.99,0.3 8.02,0.45 12.08,0.45 4.06,0 8.09,-0.15 12.08,-0.45 z"
   id="path8" />
	<path
   d="m 177.65,319.03 c -0.64,0.07 -1.29,0.14 -1.94,0.2 0.65,-0.06 1.3,-0.13 1.94,-0.2 z"
   id="path9"
   style="display:inline" />
	<path
   d="M 160,0 C 71.63,0 0,71.63 0,160 0,239.76 58.37,305.88 134.71,318 V 207 H 94.29 v -47 h 40.43 v -31.29 c -2.62,-50.29 30.07,-76 96.57,-63.29 1,10 0,35 0,39.86 C 181.71,98.71 185,128.71 185,128.71 V 160 h 44.07 v 2.5 L 222.58,207 H 185 v 111.05 c -0.79,0.12 -1.59,0.24 -2.39,0.35 C 260.27,307.42 320,240.69 320,160 320,71.63 248.37,0 160,0 Z"
   id="path10"
   style="display:inline;fill:#1877f2;fill-opacity:1" />
</g>
</svg>
