<?xml version="1.0" encoding="UTF-8" standalone="no"?>
<!-- Generator: Adobe Illustrator 26.3.1, SVG Export Plug-In . SVG Version: 6.00 Build 0)  -->

<svg
   version="1.1"
   id="Camada_1"
   x="0px"
   y="0px"
   viewBox="0 0 325 330"
   style="enable-background:new 0 0 325 330;"
   xml:space="preserve"
   sodipodi:docname="git_hub_logo.svg"
   inkscape:version="1.4 (86a8ad7, 2024-10-11)"
   xmlns:inkscape="http://www.inkscape.org/namespaces/inkscape"
   xmlns:sodipodi="http://sodipodi.sourceforge.net/DTD/sodipodi-0.dtd"
   xmlns="http://www.w3.org/2000/svg"
   xmlns:svg="http://www.w3.org/2000/svg"><defs
   id="defs1" /><sodipodi:namedview
   id="namedview1"
   pagecolor="#ffffff"
   bordercolor="#000000"
   borderopacity="0.25"
   inkscape:showpageshadow="2"
   inkscape:pageopacity="0.0"
   inkscape:pagecheckerboard="0"
   inkscape:deskcolor="#d1d1d1"
   inkscape:zoom="1.2348485"
   inkscape:cx="-109.73006"
   inkscape:cy="319.47239"
   inkscape:window-width="1920"
   inkscape:window-height="1017"
   inkscape:window-x="-8"
   inkscape:window-y="-8"
   inkscape:window-maximized="1"
   inkscape:current-layer="Camada_1" />
<style
   type="text/css"
   id="style1">
	.st0{stroke:#000000;stroke-miterlimit:10;}
</style>
<path
   class="st0"
   d="M163.05,5.04c-89.47,0-162,72.53-162,162s72.53,162,162,162s162-72.53,162-162S252.52,5.04,163.05,5.04z   M196.08,243.71c4.48,4.32,7.67,9.98,8.9,16.34h0.07v0.41c0.32,1.79,0.5,3.63,0.5,5.51v18.14c0,1.88-0.18,3.72-0.5,5.51v33.41h-83  v-31.11c-0.45-1.72-0.74-3.5-0.89-5.33v0.1c0,0-21.11,0.34-30.11-0.66c-9.92-2.98-10.98-4.97-16.86-10.86  c-0.09-0.09-0.17-0.19-0.24-0.3c-13.9-20.84-4.9-14.84-28.9-36.84c-5-5,4.53-7.03,7-7c11,2,23,16,23,16s11.45,14.69,17,17  c6.55,2.72,27.99,0.21,29.06,0.08c0.46-7.85,3.85-14.91,9.1-20.11c-41.88-10.75-72.16-41.82-72.16-78.47  c0-17.04,6.55-32.88,17.76-46.03c-2.62-7.62-5.47-23.48,1.19-49.77c24.89,5.16,37.6,14.14,43.66,20.2  c12.82-4.43,26.99-6.9,41.89-6.9c14.95,0,29.16,2.48,42.02,6.95c5.52-5.6,17.5-13.82,43.17-20.75c8.61,19.06,4.84,44.61,3.37,52.5  c10.1,12.69,15.94,27.71,15.94,43.81C267.05,201.85,237.35,232.68,196.08,243.71z"
   id="path1" />
</svg>
