<?xml version="1.0" encoding="utf-8"?>
<!-- Generator: Adobe Illustrator 26.3.1, SVG Export Plug-In . SVG Version: 6.00 Build 0)  -->
<svg version="1.1" id="Camada_1" xmlns="http://www.w3.org/2000/svg" xmlns:xlink="http://www.w3.org/1999/xlink" x="0px" y="0px"
	 viewBox="0 0 325 330" style="enable-background:new 0 0 325 330;" xml:space="preserve">
<style type="text/css">
	.st0{fill:none;}
	.st1{stroke:#000000;stroke-miterlimit:10;}
</style>
<rect x="1" class="st0" width="324" height="330"/>
<path class="st1" d="M235.98,6.29H89.12c-48.64,0-88.07,39.43-88.07,88.07v146.86c0,48.64,39.43,88.07,88.07,88.07h146.86
	c48.64,0,88.07-39.43,88.07-88.07V94.37C324.05,45.72,284.62,6.29,235.98,6.29z M294.05,244.87c0,30.61-24.82,55.43-55.43,55.43
	H86.48c-30.61,0-55.43-24.82-55.43-55.43V92.72c0-30.61,24.82-55.43,55.43-55.43h152.14c30.61,0,55.43,24.82,55.43,55.43V244.87z"/>
<path class="st1" d="M161.05,85.29c-46.39,0-84,37.61-84,84s37.61,84,84,84s84-37.61,84-84S207.44,85.29,161.05,85.29z
	 M162.05,222.29c-29.82,0-54-24.18-54-54s24.18-54,54-54s54,24.18,54,54S191.87,222.29,162.05,222.29z"/>
<circle class="st1" cx="248.55" cy="81.79" r="21.5"/>
</svg>
