<?xml version="1.0" encoding="UTF-8" standalone="no"?>
<!-- Generator: Adobe Illustrator 26.3.1, SVG Export Plug-In . SVG Version: 6.00 Build 0)  -->

<svg
   version="1.1"
   x="0px"
   y="0px"
   viewBox="0 0 325 330"
   style="enable-background:new 0 0 325 330;"
   xml:space="preserve"
   id="svg1"
   sodipodi:docname="linkedin_logo.svg"
   inkscape:version="1.4 (86a8ad7, 2024-10-11)"
   xmlns:inkscape="http://www.inkscape.org/namespaces/inkscape"
   xmlns:sodipodi="http://sodipodi.sourceforge.net/DTD/sodipodi-0.dtd"
   xmlns="http://www.w3.org/2000/svg"
   xmlns:svg="http://www.w3.org/2000/svg"><defs
   id="defs1" /><sodipodi:namedview
   id="namedview1"
   pagecolor="#ffffff"
   bordercolor="#000000"
   borderopacity="0.25"
   inkscape:showpageshadow="2"
   inkscape:pageopacity="0.0"
   inkscape:pagecheckerboard="0"
   inkscape:deskcolor="#d1d1d1"
   inkscape:zoom="2.469697"
   inkscape:cx="162.57055"
   inkscape:cy="165"
   inkscape:window-width="1920"
   inkscape:window-height="1017"
   inkscape:window-x="-8"
   inkscape:window-y="-8"
   inkscape:window-maximized="1"
   inkscape:current-layer="svg1" />
<style
   type="text/css"
   id="style1">
	.st0{display:none;}
	.st1{stroke:#000000;stroke-miterlimit:10;}
</style>
<rect
   style="fill:#ffffff;fill-opacity:1;stroke:none;stroke-width:0.5;stroke-dasharray:1.5, 1.5;stroke-opacity:1"
   id="rect1"
   width="224.72392"
   height="228.77301"
   x="52.233128"
   y="48.993866" /><g
   id="Camada_1"
   class="st0">
</g>
<g
   id="Camada_2">
	<path
   class="st1"
   d="M 162,0.5 C 72.25,0.5 -0.5,73.25 -0.5,163 -0.5,252.75 72.25,325.5 162,325.5 251.75,325.5 324.5,252.75 324.5,163 324.5,73.25 251.75,0.5 162,0.5 Z m -60.5,272 h -46 v -147 h 46 z M 79,105.5 C 64.36,105.5 52.5,93.64 52.5,79 52.5,64.36 64.36,52.5 79,52.5 c 14.64,0 26.5,11.86 26.5,26.5 0,14.64 -11.86,26.5 -26.5,26.5 z m 193.5,76 v 91 h -46 v -91 c 0,0 -4,-21 -24,-20 -15.61,0 -26.15,15.41 -27,23.63 v 2.01 85.36 h -45 v -147 h 45 v 19.21 c 4,-12.21 23,-23.21 48,-23.21 55,5 49,60 49,60 z"
   id="path1"
   style="display:inline;fill:#0077b5;fill-opacity:1;stroke:none" />
</g>
</svg>
