<?xml version="1.0" encoding="UTF-8" standalone="no"?>
<!-- Generator: Adobe Illustrator 26.3.1, SVG Export Plug-In . SVG Version: 6.00 Build 0)  -->

<svg
   version="1.1"
   id="Camada_2"
   x="0px"
   y="0px"
   viewBox="0 0 325 330"
   style="enable-background:new 0 0 325 330;"
   xml:space="preserve"
   sodipodi:docname="whatsapp_logo.svg"
   inkscape:version="1.4 (86a8ad7, 2024-10-11)"
   xmlns:inkscape="http://www.inkscape.org/namespaces/inkscape"
   xmlns:sodipodi="http://sodipodi.sourceforge.net/DTD/sodipodi-0.dtd"
   xmlns="http://www.w3.org/2000/svg"
   xmlns:svg="http://www.w3.org/2000/svg"><defs
   id="defs2" /><sodipodi:namedview
   id="namedview2"
   pagecolor="#ffffff"
   bordercolor="#000000"
   borderopacity="0.25"
   inkscape:showpageshadow="2"
   inkscape:pageopacity="0.0"
   inkscape:pagecheckerboard="0"
   inkscape:deskcolor="#d1d1d1"
   inkscape:zoom="2.469697"
   inkscape:cx="162.57055"
   inkscape:cy="165"
   inkscape:window-width="1920"
   inkscape:window-height="1017"
   inkscape:window-x="-8"
   inkscape:window-y="-8"
   inkscape:window-maximized="1"
   inkscape:current-layer="Camada_2" />
<style
   type="text/css"
   id="style1">
	.st0{stroke:#000000;stroke-miterlimit:10;}
</style>
<rect
   style="enable-background:new 0 0 325 330;fill:#ffffff;fill-opacity:1;stroke:none;stroke-width:0.5;stroke-dasharray:1.5, 1.5"
   id="rect2"
   width="221.07976"
   height="241.73006"
   x="39.276073"
   y="62.355827" /><path
   class="st0"
   d="M226.18,44.5H58.82C26.06,44.5-0.5,71.06-0.5,103.82v167.36c0,32.76,26.56,59.32,59.32,59.32h167.36  c32.76,0,59.32-26.56,59.32-59.32V103.82C285.5,71.06,258.94,44.5,226.18,44.5z M145.5,287c-18.04,0-34.98-4.69-49.69-12.91  l-53.1,14.1l14.21-52.57C48.39,220.7,43.5,203.42,43.5,185c0-56.33,45.67-102,102-102s102,45.67,102,102  C247.5,241.33,201.83,287,145.5,287z"
   id="path1"
   style="fill:#25d366;fill-opacity:1;stroke:none" />
<path
   class="st0"
   d="M145.5,100.5c-46.94,0-85,38.06-85,85c0,18.05,5.64,34.77,15.24,48.54l-7.86,30.42l31.11-7.82  c13.37,8.76,29.33,13.86,46.51,13.86c46.94,0,85-38.06,85-85S192.44,100.5,145.5,100.5z M176,234c-22,2-51-21-58-28c0,0-28-29-24-47  c3-14,7-17,14-21c1,0,9-1,11,2c1,3,10,22,10,25c-1,3-8.46,11-8.46,11s-3.54,1,8.46,15s25,18,29,20s8.71-12,13.86-14L197,209  C197,209,201,231,176,234z"
   id="path2"
   style="fill:#25d366;fill-opacity:1;stroke:none" />
</svg>
